<svg width="132" height="158" viewBox="0 0 132 158" fill="none" xmlns="http://www.w3.org/2000/svg">
<rect x="6" y="6" width="120" height="120" stroke="black" stroke-width="12"/>
<path d="M125.9 152.707C125.9 152.406 125.699 152.305 125.598 152.104L98.8984 114.398C98.5972 113.996 97.7942 113.393 97.2923 113.091L94.7829 111.784C92.4743 119.024 86.9536 124.554 79.7265 126.866L81.0314 129.38C81.3325 129.883 81.8344 130.587 82.3363 130.989L119.977 157.735C120.479 158.036 120.881 158.137 121.282 157.735L125.699 153.311C125.9 153.11 126 152.908 126 152.707L125.9 152.707ZM86.0502 104.645C86.0502 97.2047 79.9272 91.4735 72.5997 91.4735C62.6625 91.4735 54.0301 85.9433 49.4128 78C47.2045 81.9214 46 86.6471 46 91.4735C46 106.254 57.8444 118.219 72.7001 118.219C80.128 118.219 86.1506 112.086 86.1506 104.746L86.0502 104.645Z" fill="black"/>
</svg>
