<?xml version="1.0" standalone="no"?>
<!DOCTYPE svg PUBLIC "-//W3C//DTD SVG 20010904//EN"
 "http://www.w3.org/TR/2001/REC-SVG-20010904/DTD/svg10.dtd">
<svg xmlns="http://www.w3.org/2000/svg" width="160" height="64" viewBox="0 0 640.000000 256.000000" preserveAspectRatio="xMidYMid meet"><g transform="translate(0.000000,256.000000) scale(0.100000,-0.100000)" fill="#000000" stroke="none"><path d="M0 1280 l0 -1280 3200 0 3200 0 0 1280 0 1280 -3200 0 -3200 0 0 -1280z m2090 350 l0 -380 -110 0 -110 0 0 380 0 380 110 0 110 0 0 -380z m297 356 c10 -14 54 -93 98 -177 l80 -152 3 177 2 176 105 0 105 0 0 -380 0 -381 -111 3 -112 3 -98 185 -99 185 0 -187 0 -188 -100 0 -100 0 0 380 0 380 104 0 c99 0 105 -1 123 -24z m973 -71 l0 -95 -145 0 -145 0 0 -55 0 -55 120 0 120 0 0 -100 0 -100 -120 0 -120 0 0 -130 0 -130 -110 0 -110 0 0 380 0 380 255 0 255 0 0 -95z m245 -285 l0 -375 -112 -3 -113 -3 0 381 0 381 113 -3 112 -3 0 -375z m384 194 l96 -182 3 184 2 185 103 -3 102 -3 3 -377 2 -378 -114 0 -114 0 -94 176 -93 177 -3 -177 -2 -176 -105 0 -105 0 0 380 0 381 111 -3 112 -3 96 -181z m591 -194 l0 -380 -110 0 -110 0 0 380 0 380 110 0 110 0 0 -380z m856 270 c32 -60 61 -110 65 -110 4 0 25 35 47 78 22 42 48 92 58 109 l19 33 108 0 c96 0 107 -2 107 -18 0 -10 -4 -22 -9 -28 -5 -5 -40 -65 -76 -134 -37 -69 -85 -157 -106 -197 l-39 -71 0 -156 0 -157 -112 3 -113 3 -5 160 -5 160 -54 95 c-30 52 -64 118 -77 145 -16 35 -23 43 -23 28 -1 -22 -4 -23 -101 -23 l-100 0 0 -285 0 -285 -110 0 -110 0 0 285 0 285 -95 0 -95 0 0 95 0 95 384 0 385 0 57 -110z m-4836 -190 l0 -80 -70 0 -70 0 0 -340 0 -340 265 0 265 0 0 280 0 280 85 0 85 0 0 -365 0 -365 -430 0 -430 0 0 505 0 505 150 0 150 0 0 -80z m980 -425 l0 -505 -150 0 -150 0 0 85 0 85 65 0 65 0 0 335 0 335 -265 0 -265 0 0 -275 0 -275 -80 0 -80 0 0 360 0 360 430 0 430 0 0 -505z m514 -321 c10 -4 16 -18 16 -36 0 -29 -1 -29 -42 -23 -88 13 -128 -29 -128 -135 0 -33 6 -76 14 -95 17 -39 40 -48 107 -43 42 3 44 2 47 -26 4 -37 -10 -46 -73 -46 -112 0 -157 54 -163 195 -3 79 0 96 20 135 15 29 35 51 58 62 34 18 113 24 144 12z m194 0 c41 -8 69 -36 83 -83 15 -50 6 -86 -32 -123 -16 -16 -29 -32 -29 -34 0 -2 20 -32 45 -66 46 -64 53 -82 34 -93 -25 -16 -58 8 -107 80 -68 96 -82 97 -82 8 0 -79 -8 -96 -41 -91 l-24 3 -3 190 c-1 104 0 195 2 202 6 14 99 18 154 7z m1713 -20 c37 -32 49 -77 49 -179 0 -144 -30 -191 -128 -201 -60 -7 -111 18 -134 66 -28 55 -25 212 5 270 12 25 33 51 47 58 36 19 134 11 161 -14z m1330 0 c82 -73 79 -304 -5 -359 -39 -26 -107 -30 -148 -11 -54 26 -72 66 -76 178 -4 83 -1 103 17 140 29 61 62 79 133 75 39 -2 64 -9 79 -23z m-2681 -9 c0 -25 -1 -25 -85 -25 l-85 0 0 -55 0 -55 70 0 70 0 0 -30 0 -30 -65 0 -65 0 0 -55 0 -55 74 0 c86 0 75 -15 131 175 20 66 38 128 41 138 5 15 14 17 51 15 l46 -3 33 -114 c18 -62 42 -140 54 -172 28 -83 27 -99 -9 -99 -34 0 -46 13 -56 60 -10 50 -22 60 -71 60 -47 0 -52 -4 -74 -70 l-15 -45 -137 -3 -138 -3 0 196 0 195 115 0 115 0 0 -25z m518 -2 c-3 -26 -7 -28 -55 -31 l-53 -3 0 -165 0 -164 -30 0 -30 0 0 170 0 170 -55 0 c-52 0 -55 1 -55 25 l0 25 141 0 140 0 -3 -27z m242 2 c0 -25 -1 -25 -85 -25 l-85 0 0 -55 0 -55 70 0 70 0 0 -30 0 -30 -70 0 -70 0 0 -55 0 -55 85 0 85 0 0 -30 0 -31 -112 3 -113 3 -3 193 -2 192 115 0 115 0 0 -25z m192 -47 c30 -51 44 -67 50 -57 5 8 23 39 41 69 27 47 37 55 65 58 21 2 32 -1 32 -9 0 -7 -25 -56 -55 -110 -55 -97 -55 -97 -55 -184 l0 -86 -32 3 -33 3 -5 90 c-5 87 -7 93 -58 177 -61 101 -64 118 -22 118 26 0 34 -9 72 -72z m548 -81 c0 -141 2 -155 20 -172 24 -22 88 -15 107 12 9 12 13 62 13 165 l0 148 31 0 30 0 -3 -171 -3 -171 -27 -23 c-53 -45 -161 -42 -204 6 -17 19 -19 42 -22 190 l-3 169 30 0 31 0 0 -153z m461 124 c25 -26 29 -37 29 -86 0 -52 -3 -60 -34 -89 l-34 -31 44 -58 c54 -73 58 -100 12 -95 -28 3 -39 13 -80 76 -33 49 -54 72 -68 72 -18 0 -20 -7 -20 -75 l0 -75 -30 0 -30 0 0 195 0 195 91 0 c87 0 92 -1 120 -29z m315 -86 c34 -60 64 -117 65 -125 2 -8 6 41 9 110 l5 125 33 3 32 3 0 -195 0 -196 -34 0 c-37 0 -34 -5 -135 182 l-36 67 -5 -122 -5 -122 -30 0 -30 0 -3 193 -2 193 36 -3 c35 -3 39 -7 100 -113z m537 58 c51 -169 75 -237 81 -223 3 8 15 53 26 100 12 47 31 106 42 133 18 40 24 47 49 47 18 0 29 -5 29 -13 0 -8 -15 -63 -34 -123 -19 -60 -44 -142 -56 -181 l-21 -73 -44 0 -44 0 -22 73 c-61 205 -87 302 -83 309 3 4 18 8 33 8 25 0 29 -6 44 -57z m465 30 c-3 -28 -4 -28 -80 -31 l-78 -3 0 -49 0 -50 65 0 65 0 0 -30 0 -30 -65 0 -65 0 0 -55 0 -55 80 0 80 0 0 -30 0 -30 -115 0 -115 0 0 195 0 195 116 0 115 0 -3 -27z m92 -138 l0 -164 78 -3 c75 -3 77 -4 77 -28 l0 -25 -112 -3 -113 -3 0 196 0 195 35 0 35 0 0 -165z"></path><path d="M2190 845 l0 -65 29 0 c46 0 78 16 84 42 14 54 -19 88 -83 88 l-30 0 0 -65z"></path><path d="M3885 901 c-34 -14 -50 -58 -50 -135 1 -110 43 -167 101 -136 25 14 54 85 54 134 0 46 -19 105 -41 127 -20 20 -33 22 -64 10z"></path><path d="M5205 887 c-31 -26 -46 -104 -33 -176 11 -60 33 -83 77 -79 48 4 71 48 71 134 0 78 -16 123 -47 135 -34 13 -39 12 -68 -14z"></path><path d="M2771 819 c-19 -54 -15 -69 19 -69 28 0 30 2 24 28 -9 37 -23 72 -28 72 -2 0 -9 -14 -15 -31z"></path><path d="M4460 845 l0 -65 35 0 c39 0 85 36 85 65 0 29 -46 65 -85 65 l-35 0 0 -65z"></path></g></svg>

